<?xml version="1.0" encoding="utf-8"?><svg xmlns="http://www.w3.org/2000/svg" xml:space="preserve" id="Layer_1" x="0" y="0" viewBox="0 0 512 512"><style>.st0{fill:#FFFFFF;}
	.st1{fill:url(#SVGID_1_);}</style><path d="m509.6 206.1-10-30.7c-5.6-17.3-20.2-30.2-38.1-33.7l-97.4-18.9L316 36.1c-8.8-15.9-25.6-25.8-43.8-25.8h-32.3c-18.2 0-35 9.9-43.8 25.8L148 122.8l-97.4 18.9c-17.9 3.5-32.5 16.4-38.1 33.7l-10 30.7c-5.6 17.3-1.4 36.3 11 49.6l67.7 72.5L69 426.5c-2.2 18.1 5.5 35.9 20.3 46.6l26.1 19c8.7 6.3 19.1 9.6 29.5 9.6 7.2 0 14.4-1.5 21.2-4.7l89.9-41.9 89.9 41.9c16.5 7.7 35.9 5.8 50.6-4.9l26.1-19c14.7-10.7 22.5-28.6 20.3-46.6l-12.1-98.4 67.7-72.5c12.4-13.2 16.7-32.2 11.1-49.5" class="st0"/><linearGradient id="SVGID_1_" x1="256" x2="256" y1="30.948" y2="464.546" gradientUnits="userSpaceOnUse"><stop offset="0" style="stop-color:#FF499B"/><stop offset="1" style="stop-color:#AD00FF"/></linearGradient><path d="m482.1 206.7-10-30.7c-2.4-7.3-8.6-12.8-16.1-14.3l-110.6-21.5-54.6-98.5c-3.7-6.7-10.8-10.9-18.6-10.9h-32.3c-7.7 0-14.8 4.2-18.6 10.9l-54.6 98.5-110.6 21.6c-7.6 1.5-13.7 6.9-16.1 14.3l-10 30.7c-2.4 7.3-.6 15.4 4.7 21l76.9 82.3-13.9 111.7c-.9 7.6 2.3 15.2 8.6 19.7l26.1 19c6.2 4.5 14.4 5.3 21.4 2.1L256 415l102.1 47.6c7 3.3 15.2 2.5 21.4-2.1l26.1-19c6.2-4.5 9.5-12.1 8.6-19.7l-13.7-111.7 76.9-82.3c5.2-5.7 7-13.7 4.7-21.1m-250.3 50.2c0 3.7-3 6.8-6.8 6.8h-26.8v26.7c0 3.7-3 6.8-6.8 6.8H170c-3.7 0-6.8-3-6.8-6.8v-26.7h-26.8c-3.7 0-6.8-3-6.8-6.8v-21.3c0-3.7 3-6.8 6.8-6.8h26.8v-26.7c0-3.7 3-6.8 6.8-6.8h21.4c3.7 0 6.8 3 6.8 6.8v26.7H225c3.7 0 6.8 3 6.8 6.8zm95.5 41.5c-13.8 0-25-11.2-25-25s11.2-25 25-25 25 11.2 25 25-11.2 25-25 25m50.8-54.4c-13.8 0-25-11.2-25-25s11.2-25 25-25 25 11.2 25 25-11.2 25-25 25" class="st1"/></svg>